<svg width="512" height="512" viewBox="0 0 512 512" fill="none" xmlns="http://www.w3.org/2000/svg">
<g clip-path="url(#clip0_65_195)">
<rect x="283" width="128" height="512" fill="#4CE0D7"/>
<path d="M109.92 103V425H80.02V103H109.92ZM234.12 410.74V425H108.54V410.74H234.12ZM262.18 350.48L235.5 425H159.14L175.7 410.74C191.953 410.74 205.14 408.287 215.26 403.38C225.687 398.167 234.12 390.96 240.56 381.76C247 372.56 252.673 362.133 257.58 350.48H262.18ZM81.4 391.42V425H44.6V420.4C44.6 420.4 45.52 420.4 47.36 420.4C49.5067 420.4 50.58 420.4 50.58 420.4C58.5533 420.4 65.3 417.64 70.82 412.12C76.6467 406.293 79.7133 399.393 80.02 391.42H81.4ZM81.4 136.58H80.02C79.7133 128.607 76.6467 121.86 70.82 116.34C65.3 110.513 58.5533 107.6 50.58 107.6C50.58 107.6 49.5067 107.6 47.36 107.6C45.52 107.6 44.6 107.6 44.6 107.6V103H81.4V136.58ZM108.54 136.58V103H145.34V107.6C145.033 107.6 143.96 107.6 142.12 107.6C140.28 107.6 139.36 107.6 139.36 107.6C131.387 107.6 124.487 110.513 118.66 116.34C113.14 121.86 110.227 128.607 109.92 136.58H108.54Z" fill="black"/>
<path d="M334.82 431.44L192.22 105.76H231.32L344.02 387.74L334.82 431.44ZM334.82 431.44L330.68 399.24L453.04 104.38H480.64L355.98 384.06C355.98 384.06 355.06 386.053 353.22 390.04C351.687 393.72 349.693 398.32 347.24 403.84C345.093 409.36 343.1 414.727 341.26 419.94C339.727 425.153 338.96 428.987 338.96 431.44H334.82ZM440.16 136.12C443.533 126.92 442.92 119.867 438.32 114.96C433.72 110.053 428.507 107.6 422.68 107.6H418.54V103H511V107.6C511 107.6 510.233 107.6 508.7 107.6C507.473 107.6 506.86 107.6 506.86 107.6C500.113 107.6 492.907 109.9 485.24 114.5C477.573 118.793 471.287 126.153 466.38 136.58L440.16 136.12ZM243.74 136.12L205.56 136.58C200.96 126.153 194.827 118.793 187.16 114.5C179.493 109.9 172.133 107.6 165.08 107.6C165.08 107.6 164.467 107.6 163.24 107.6C162.013 107.6 161.4 107.6 161.4 107.6V103H264.9V107.6H260.76C254.933 107.6 249.72 110.053 245.12 114.96C240.827 119.867 240.367 126.92 243.74 136.12Z" fill="black"/>
</g>
<defs>
<clipPath id="clip0_65_195">
<rect width="512" height="512" fill="white"/>
</clipPath>
</defs>
</svg>
